<svg xmlns="http://www.w3.org/2000/svg" xmlns:xlink="http://www.w3.org/1999/xlink" version="1.1" id="Capa_1" x="0px"
	y="0px" enable-background="new 0 0 1400 980" xml:space="preserve" viewBox="34.9 868.33 1329.61 62.94">
	<g>
		<path fill-rule="evenodd" clip-rule="evenodd" fill="#382319"
			d="M37.8,882.6c1.1-1.5,3.1-1.9,5.9-1.9c2.7,0,5.1,0.2,6.6,1.3    c6.9,4.9,17,7.8,27.2,10.4c13.3,3.4,27.3,4,40.4-0.7c3.1-1.1,7.3-1.8,9.4-3.3c3.3-2.3,8-3.9,11.4-6c7.4-4.6,17.7-6.6,28.8-7.5    c6.4-0.5,13.3-0.6,19.6,0c5.5,0.6,11,2.1,15.6,3.8c9.7,3.7,20.3,6.4,31.7,8.2c5.5,0.9,11.4,1.7,17.8,1c7.1-0.7,12.6-2.5,17.4-4.8    c6.7-3.2,12.8-6.7,18.8-10.2c5-2.9,11.5-3.8,18.6-4.1c3.4-0.2,6.8-0.2,10.2-0.4c10.5-0.5,19.5,1.6,28.2,4.1    c3.8,1.1,7.5,2.6,10.6,4.1c10,4.9,20.2,9.6,33,12.5c8.5,1.9,17.9,2.4,27.2,2.4c0.7,0,1.4,0,2-0.1c8.2-2.1,16.1-4.6,24.5-6.4    c9.4-2,15.2-6,22.3-9.2c9-4.1,19.2-5.5,30.8-5.6c12.6-0.1,24.2,1.3,34.6,5c2.1,0.8,4.9,1,7.2,1.7c12.5,3.8,24.5,7.9,38,10.9    c10.9,2.4,22.1,3,33.6,1.9c3-0.3,6.1-1.1,8.4-2.1c7-2.9,13.8-6,20.5-9.1c6.3-2.9,13-4.9,21.9-5.5c8.7-0.6,17.1-0.8,25.6-0.1    c14.8,1.2,27.6,4.5,39.7,8.8c6.4,2.3,13.3,4.3,20.3,6.1c4.8,1.2,10.2,1.8,15.5,2.2c4.4,0.3,9,0.2,12.8-1.4    c4.1-1.7,8.6-3.3,12.4-5.2c12.5-6.2,27-10.6,44.7-11.4c6.5-0.3,13.4,0.6,19.9,1.5c14.5,1.9,26,6.8,38.7,10.5    c6.6,1.9,13.1,4.1,19.9,5.8c5.2,1.4,11.1,2.2,17,1.7c13-1,24.6-3.3,33.4-8.6c7.3-4.4,16.5-7.8,27.3-9.7c4.6-0.8,10.1-1.4,14.6-0.9    c9,1,18.6,0.5,27.1,2.7c2.7,0.7,6.2,1.2,7.9,2.4c4,2.9,10.1,4.4,15.1,6.6c8.7,3.8,19.1,6.3,30,7.7c8.4,1.1,17.3,1.1,24.3-3    c5.5-3.2,12-6.1,18.7-8.8c9.6-3.9,20.6-6,33.3-6.4c6.3-0.2,12.4-1.1,18.5,0.3c3.1,0.7,6.3,1.3,9.2,2.1c5.9,1.6,12.6,2.9,17.4,5.2    c7.6,3.5,17,5.4,25.7,7.8c5.3,1.5,12.4,3,19.2,1.5c3.2-0.7,6-1.9,8.9-2.9c7.4-2.6,14.3-5.6,22.2-7.8c18.4-5.2,37.5-6.6,57.5-1.8    c6.4,1.5,12.8,2.8,17.1,5.7c1.1,0.8,3.2,1.4,5,1.7c5.1,0.9,6.6,2.5,5,5c-6.7,1.7-9.4,1.5-15-1c-4-1.8-8.1-3.7-12.7-5.1    c-18-5.3-35.9-4.6-53.1,1c-5.4,1.8-9.9,4.2-14.5,6.6c-5.7,2.9-12.5,4.8-20.1,5.9c-2.7,0.4-6.3,0.1-9.1-0.4    c-11.6-2-22.4-4.9-32.8-8.2c-8.8-2.7-17-5.8-26.3-8.3c-13.8-3.7-26.6-2.5-39.7,0.5c-9.9,2.3-16.4,6.6-24.1,10.2    c-8.4,3.9-17.7,7.2-30.1,6.4c-5.6-0.4-11.2-1-16.4-2c-8.5-1.8-16.5-4.1-23.7-7.1c-5.7-2.4-11.1-5.1-17.3-7    c-10.8-3.5-23.1-4.7-35.8-3.7c-6.4,0.5-12,2.6-16.5,5.1c-2,1.1-3.7,2.3-5.6,3.4c-3.2,1.9-7.3,3.2-11.6,4.5    c-10.8,3.2-22.1,5.8-34.8,6.4c-3.5,0.2-7.2-0.1-10.6-0.6c-8.5-1.3-16.1-3.5-23.6-5.8c-9.5-3-19.1-6.1-28.7-9    c-12-3.7-25-5.3-38.9-3.6c-4.5,0.6-9.3,1.3-12.9,2.7c-6.5,2.6-11.9,5.8-18.3,8.5c-4.2,1.8-9.3,3.1-14,4.5    c-6.6,2-13.9,1.6-21.1,1.2c-11.8-0.7-21.6-3.6-31-7c-12.4-4.4-25.2-8.5-40.7-9.7c-4.9-0.4-10-0.4-14.9-0.4    c-8.3-0.2-15.5,1.2-21.6,4.1c-6.1,2.9-12.3,5.7-18.7,8.3c-9.5,3.8-20.3,5.5-32.8,5.5c-14,0-26.2-2.3-37.8-5.8    c-9.1-2.7-17.6-5.9-26.9-8.4c-12.3-3.2-24.8-6.6-39.7-5.6c-7.3,0.5-14.1,1.5-19.6,4.1c-4.4,2.1-8.5,4.4-13.2,6.3    c-4.2,1.7-8.8,3.2-13.7,4.3c-9,2.1-18.2,4-27.4,5.9c-2,0.4-4.5,0.5-6.6,0.4c-8.5-0.7-17-1.3-25.3-2.5c-6.4-0.9-12.5-2.3-17.5-4.6    c-0.8-0.4-1.8-0.7-2.7-1c-7.1-2-11.8-5.4-17.7-8.1c-13-5.8-28-8.5-45.5-6.2c-5.2,0.7-8.7,2.6-11.1,4.7    c-6.2,5.4-16.3,8.7-25.9,12.2c-4.8,1.8-11,2.4-17.5,1.6c-4.3-0.5-9.1,0-13.2-0.6c-9-1.4-17.9-3-26.6-4.9c-3.7-0.8-6.9-2.5-9.9-4    c-6.5-3.1-14.2-3.9-22.9-3.9c-16.6,0-28.1,4.6-37.8,10.4c-8.2,4.9-19,7.6-30.4,9.8c-3.2,0.6-7.2,0.3-10.8,0.2    c-9.6-0.3-18.8-1.6-27.3-3.7c-5-1.3-9.6-3.1-13.8-4.9c-6-2.7-11.6-5.7-17.2-8.6C38.7,883.6,38.3,883,37.8,882.6z">
		</path>
		<path fill-rule="evenodd" clip-rule="evenodd" fill="#382319"
			d="M36.5,897.7c1.1-1.5,3.1-1.9,5.9-1.9c2.7,0,5.1,0.2,6.6,1.3    c6.9,4.9,17,7.8,27.2,10.4c13.3,3.4,27.3,4,40.4-0.7c3.1-1.1,7.3-1.8,9.4-3.3c3.3-2.3,8-3.9,11.4-6.1c7.4-4.6,17.7-6.6,28.8-7.5    c6.4-0.5,13.3-0.6,19.6,0c5.5,0.6,11,2.1,15.6,3.8c9.7,3.7,20.3,6.4,31.7,8.2c5.5,0.9,11.4,1.7,17.8,1c7.1-0.7,12.6-2.5,17.4-4.8    c6.7-3.2,12.8-6.7,18.8-10.2c5-2.9,11.5-3.8,18.6-4.1c3.4-0.2,6.8-0.2,10.2-0.4c10.5-0.5,19.6,1.6,28.2,4.1    c3.8,1.1,7.4,2.6,10.7,4.1c10,4.9,20.2,9.7,33,12.5c8.5,1.9,17.9,2.4,27.2,2.4c0.7,0,1.4,0,2-0.1c8.2-2.1,16.1-4.6,24.5-6.4    c9.4-2,15.2-6,22.3-9.2c9-4.1,19.2-5.5,30.8-5.6c12.6-0.1,24.2,1.3,34.6,5c2.1,0.8,4.9,1,7.2,1.7c12.5,3.8,24.5,7.9,38,10.9    c10.9,2.4,22.1,3,33.6,1.9c3-0.3,6.1-1.1,8.4-2.1c7-2.9,13.8-6,20.5-9.1c6.3-2.9,13-4.9,21.9-5.5c8.7-0.6,17.1-0.8,25.6-0.1    c14.8,1.2,27.6,4.5,39.7,8.8c6.4,2.3,13.3,4.3,20.3,6.1c4.8,1.2,10.2,1.8,15.5,2.2c4.4,0.3,9.1,0.2,12.8-1.4    c4.1-1.7,8.6-3.3,12.4-5.2c12.5-6.2,27-10.6,44.7-11.4c6.5-0.3,13.4,0.6,19.8,1.5c14.6,1.9,26,6.8,38.7,10.5    c6.6,1.9,13.1,4.1,19.9,5.8c5.2,1.4,11.1,2.2,17,1.7c13-1,24.6-3.3,33.4-8.6c7.3-4.4,16.5-7.8,27.3-9.7c4.6-0.8,10.1-1.4,14.6-0.9    c9,1,18.6,0.5,27.1,2.7c2.7,0.7,6.2,1.2,7.8,2.4c4,2.9,10.1,4.4,15.1,6.6c8.7,3.8,19,6.3,30,7.7c8.4,1.1,17.3,1.1,24.3-3    c5.5-3.2,12-6.1,18.6-8.8c9.6-3.9,20.6-6,33.3-6.4c6.3-0.2,12.4-1.1,18.5,0.3c3.1,0.7,6.3,1.3,9.2,2.1c5.9,1.6,12.6,2.9,17.4,5.2    c7.6,3.5,17,5.4,25.7,7.8c5.3,1.5,12.4,3,19.2,1.5c3.2-0.7,6-1.9,8.9-2.9c7.4-2.6,14.3-5.6,22.2-7.8c18.4-5.2,37.6-6.6,57.5-1.8    c6.4,1.5,12.8,2.8,17.1,5.8c1.1,0.8,3.1,1.4,5,1.7c5.1,0.9,6.6,2.5,5,5c-6.7,1.7-9.4,1.5-15-1c-4.1-1.8-8.1-3.7-12.7-5.1    c-18-5.3-35.9-4.6-53.1,1c-5.4,1.8-9.9,4.2-14.5,6.6c-5.7,2.9-12.5,4.8-20.1,5.9c-2.7,0.4-6.3,0.1-9.1-0.4    c-11.6-2-22.4-4.9-32.7-8.2c-8.8-2.8-17-5.9-26.3-8.3c-13.8-3.7-26.6-2.5-39.7,0.5c-9.9,2.3-16.4,6.6-24.1,10.2    c-8.4,4-17.7,7.2-30.1,6.4c-5.6-0.4-11.2-1-16.4-2c-8.5-1.8-16.5-4.1-23.7-7.1c-5.7-2.4-11.1-5.1-17.3-7    c-10.8-3.5-23.1-4.7-35.8-3.7c-6.5,0.5-12,2.6-16.5,5.1c-2,1.1-3.7,2.3-5.6,3.4c-3.2,1.9-7.3,3.2-11.6,4.5    c-10.9,3.2-22.1,5.8-34.8,6.4c-3.5,0.2-7.2-0.1-10.6-0.6c-8.5-1.3-16.1-3.5-23.6-5.8c-9.5-3-19.1-6.1-28.7-9    c-12-3.7-25-5.3-38.9-3.6c-4.5,0.6-9.3,1.3-12.9,2.7c-6.5,2.6-11.9,5.8-18.3,8.5c-4.2,1.8-9.3,3.1-14,4.5    c-6.6,2-13.9,1.6-21.1,1.2c-11.8-0.7-21.6-3.6-31-7c-12.4-4.4-25.2-8.5-40.7-9.7c-4.9-0.4-10-0.4-14.9-0.4    c-8.3-0.2-15.5,1.2-21.6,4.1c-6.1,2.9-12.3,5.7-18.7,8.3c-9.5,3.8-20.3,5.5-32.8,5.5c-14,0-26.2-2.3-37.8-5.8    c-9.1-2.7-17.6-5.9-26.9-8.4c-12.3-3.2-24.8-6.6-39.7-5.6c-7.4,0.5-14.1,1.5-19.6,4.1c-4.5,2.1-8.5,4.4-13.2,6.3    c-4.2,1.7-8.8,3.2-13.7,4.3c-9,2.1-18.2,4-27.4,5.9c-2,0.4-4.5,0.5-6.6,0.3c-8.5-0.7-17-1.3-25.3-2.5c-6.4-0.9-12.5-2.3-17.5-4.6    c-0.8-0.4-1.8-0.7-2.7-1c-7.1-2.1-11.8-5.4-17.7-8.1c-13-5.8-28-8.5-45.5-6.2c-5.2,0.7-8.7,2.6-11.1,4.7    c-6.2,5.4-16.3,8.7-25.9,12.2c-4.8,1.8-11,2.4-17.5,1.6c-4.3-0.5-9.1,0-13.2-0.6c-9-1.4-17.9-3-26.6-4.9c-3.8-0.8-6.9-2.5-9.9-4    c-6.5-3.1-14.2-3.9-23-3.9c-16.6,0-28.1,4.6-37.8,10.4c-8.2,4.9-19,7.6-30.4,9.8c-3.2,0.6-7.2,0.3-10.8,0.2    c-9.6-0.3-18.8-1.6-27.3-3.7c-5-1.3-9.6-3.1-13.8-4.9c-6-2.7-11.6-5.7-17.2-8.6C37.4,898.7,37,898.1,36.5,897.7z">
		</path>
		<path fill-rule="evenodd" clip-rule="evenodd" fill="#382319"
			d="M34.9,913.1c1.1-1.5,3.1-1.9,5.9-1.9c2.7,0,5.1,0.2,6.6,1.3    c6.9,4.9,17,7.9,27.2,10.4c13.3,3.4,27.3,4,40.4-0.7c3.1-1.1,7.3-1.8,9.4-3.3c3.3-2.3,8-3.9,11.4-6c7.4-4.6,17.7-6.6,28.8-7.5    c6.4-0.5,13.3-0.6,19.6,0c5.5,0.6,11,2.1,15.6,3.8c9.7,3.7,20.3,6.4,31.7,8.2c5.5,0.9,11.4,1.7,17.8,1c7.1-0.7,12.6-2.5,17.4-4.8    c6.7-3.2,12.8-6.7,18.8-10.2c5-2.9,11.5-3.8,18.6-4.1c3.4-0.2,6.8-0.2,10.2-0.4c10.5-0.5,19.5,1.6,28.2,4.1    c3.9,1.1,7.5,2.6,10.7,4.1c10,4.9,20.2,9.6,33,12.5c8.5,1.9,17.9,2.4,27.2,2.4c0.7,0,1.4,0,2-0.1c8.2-2.1,16.1-4.6,24.5-6.4    c9.4-2,15.2-6,22.3-9.2c9-4.1,19.2-5.5,30.8-5.6c12.6-0.1,24.2,1.3,34.6,5c2.1,0.8,4.9,1,7.2,1.7c12.5,3.8,24.5,7.9,38,10.9    c10.9,2.4,22.1,3,33.6,1.9c3-0.3,6.1-1.1,8.4-2.1c7-2.9,13.8-6,20.5-9.1c6.3-2.9,13-4.9,21.9-5.5c8.7-0.6,17.1-0.8,25.6-0.1    c14.8,1.2,27.6,4.5,39.7,8.8c6.4,2.3,13.3,4.3,20.3,6.1c4.8,1.2,10.2,1.8,15.5,2.2c4.4,0.3,9,0.2,12.8-1.4    c4.1-1.7,8.6-3.3,12.4-5.2c12.5-6.2,27-10.6,44.7-11.4c6.5-0.3,13.4,0.6,19.8,1.5c14.6,1.9,26,6.8,38.7,10.5    c6.6,1.9,13.1,4.1,19.9,5.8c5.2,1.4,11.1,2.2,17,1.7c13-1,24.6-3.3,33.4-8.6c7.3-4.4,16.5-7.8,27.3-9.7c4.6-0.8,10.1-1.4,14.6-0.9    c9,1,18.6,0.5,27.1,2.7c2.7,0.7,6.2,1.2,7.8,2.4c4,2.9,10.1,4.4,15.1,6.6c8.7,3.8,19,6.3,30,7.7c8.4,1.1,17.3,1.1,24.3-2.9    c5.5-3.2,12-6.1,18.7-8.8c9.6-3.9,20.6-6,33.3-6.4c6.3-0.2,12.4-1.1,18.5,0.3c3.1,0.7,6.3,1.3,9.2,2.1c5.9,1.6,12.6,2.9,17.4,5.2    c7.6,3.5,17,5.4,25.7,7.8c5.3,1.5,12.4,3,19.2,1.5c3.2-0.7,6-1.9,8.9-2.9c7.4-2.6,14.3-5.6,22.2-7.8c18.4-5.2,37.6-6.6,57.5-1.8    c6.4,1.5,12.8,2.8,17.1,5.7c1.1,0.8,3.2,1.4,5,1.7c5.1,0.9,6.6,2.5,5,5c-6.7,1.7-9.4,1.5-15-1c-4-1.8-8.1-3.7-12.7-5.1    c-18-5.3-36-4.6-53.1,1c-5.4,1.8-9.9,4.2-14.5,6.6c-5.7,2.9-12.5,4.8-20.1,5.9c-2.8,0.4-6.3,0.1-9.1-0.4    c-11.6-2-22.4-4.9-32.7-8.2c-8.8-2.8-17.1-5.9-26.3-8.3c-13.8-3.7-26.6-2.5-39.7,0.5c-9.9,2.3-16.4,6.6-24.2,10.2    c-8.4,4-17.7,7.2-30.1,6.4c-5.6-0.4-11.2-1-16.4-2c-8.5-1.8-16.5-4.1-23.7-7.1c-5.7-2.4-11.1-5.1-17.3-7    c-10.8-3.5-23.1-4.7-35.8-3.7c-6.5,0.5-12,2.6-16.5,5.1c-2,1.1-3.7,2.3-5.6,3.4c-3.2,1.9-7.3,3.2-11.6,4.5    c-10.9,3.2-22.1,5.8-34.8,6.4c-3.5,0.2-7.2-0.1-10.6-0.6c-8.5-1.3-16.1-3.5-23.6-5.8c-9.5-3-19.1-6.1-28.7-9    c-12-3.7-25-5.3-38.9-3.6c-4.5,0.6-9.4,1.3-12.9,2.7c-6.5,2.6-11.9,5.8-18.3,8.5c-4.2,1.8-9.3,3.1-14,4.5    c-6.6,2-13.9,1.6-21.1,1.2c-11.8-0.7-21.6-3.6-31-7c-12.4-4.4-25.2-8.5-40.7-9.7c-4.9-0.4-10-0.4-14.9-0.4    c-8.3-0.1-15.5,1.2-21.6,4.1c-6.1,2.9-12.3,5.7-18.7,8.3c-9.5,3.8-20.3,5.5-32.7,5.5c-14,0-26.2-2.3-37.8-5.8    c-9.1-2.7-17.6-5.9-26.9-8.4c-12.3-3.2-24.8-6.6-39.7-5.6c-7.3,0.5-14.1,1.5-19.6,4.1c-4.4,2.1-8.5,4.4-13.2,6.3    c-4.2,1.7-8.8,3.2-13.7,4.3c-9,2.1-18.2,4-27.4,5.9c-2,0.4-4.5,0.5-6.6,0.4c-8.5-0.7-17-1.3-25.3-2.5c-6.4-0.9-12.5-2.3-17.5-4.6    c-0.8-0.4-1.8-0.7-2.7-1c-7.1-2.1-11.8-5.4-17.7-8.1c-13-5.8-28-8.5-45.5-6.2c-5.2,0.7-8.7,2.6-11.1,4.7    c-6.2,5.4-16.3,8.7-25.9,12.2c-4.8,1.8-11,2.4-17.5,1.6c-4.3-0.5-9.1,0-13.2-0.6c-9-1.4-17.9-3-26.6-4.9c-3.8-0.8-6.9-2.5-9.9-4    c-6.5-3.1-14.2-3.9-23-3.9c-16.6,0-28.1,4.6-37.8,10.4c-8.2,4.9-19,7.6-30.4,9.8c-3.2,0.6-7.2,0.3-10.8,0.2    c-9.6-0.3-18.8-1.6-27.3-3.7c-5-1.3-9.6-3.1-13.8-4.9c-6-2.7-11.6-5.7-17.2-8.6C35.8,914.1,35.4,913.5,34.9,913.1z">
		</path>
	</g>
</svg>