<?xml version="1.0" standalone="no"?>
<!DOCTYPE svg PUBLIC "-//W3C//DTD SVG 20010904//EN"
 "http://www.w3.org/TR/2001/REC-SVG-20010904/DTD/svg10.dtd">
<svg version="1.0" xmlns="http://www.w3.org/2000/svg"
 width="373.000000pt" height="373.000000pt" viewBox="0 0 373.000000 373.000000"
 preserveAspectRatio="xMidYMid meet">
<metadata>
Created by potrace 1.16, written by Peter Selinger 2001-2019
</metadata>
<g transform="translate(0.000000,373.000000) scale(0.100000,-0.100000)"
fill="#000000" stroke="none">
<path d="M0 1865 l0 -1865 1865 0 1865 0 0 1865 0 1865 -1865 0 -1865 0 0
-1865z m1907 1675 c61 -37 68 -58 71 -223 5 -181 -2 -228 -34 -267 -48 -57
-143 -59 -195 -4 -24 25 -24 29 -27 222 -3 218 0 231 57 269 42 28 86 29 128
3z m-432 -632 c197 -194 362 -354 369 -356 6 -1 173 158 371 353 l360 354 182
1 c100 0 205 -5 232 -11 88 -19 132 -100 95 -176 -30 -61 -60 -71 -204 -74
l-125 -1 -337 -337 c-186 -184 -338 -341 -338 -347 0 -6 151 -159 336 -340
l336 -329 132 -6 c137 -5 156 -11 190 -56 25 -34 26 -111 0 -145 -39 -53 -66
-58 -294 -58 l-210 0 -356 353 c-196 193 -361 353 -367 355 -7 1 -172 -157
-367 -353 l-355 -355 -215 0 c-195 0 -218 2 -247 20 -44 26 -64 61 -65 109 0
46 19 82 59 108 22 14 54 19 157 22 l129 3 341 338 340 337 -345 341 -344 341
-118 1 c-76 0 -129 5 -150 14 -103 43 -89 205 20 234 21 5 126 10 234 11 l197
1 357 -352z m-466 -468 c70 0 75 -2 107 -34 30 -30 34 -40 34 -85 0 -44 -5
-56 -34 -89 l-34 -37 -179 -3 c-209 -4 -233 -1 -271 38 -34 34 -45 74 -32 122
22 78 86 101 255 92 44 -2 113 -4 154 -4z m1985 0 c22 -5 53 -22 69 -38 25
-25 29 -38 29 -81 0 -61 -20 -97 -67 -117 -48 -20 -362 -20 -409 0 -48 20 -76
61 -76 110 1 82 46 123 141 129 135 7 276 6 313 -3z m-1078 -829 c58 -35 66
-72 62 -265 -3 -138 -7 -177 -21 -203 -21 -40 -64 -63 -114 -63 -47 1 -78 18
-104 56 -17 26 -19 48 -19 219 0 171 2 193 19 219 11 16 30 35 43 42 34 19 98
17 134 -5z m-1313 -734 c12 -12 34 -38 49 -57 l28 -35 17 22 c10 11 31 37 46
57 27 35 68 48 82 26 3 -5 -17 -41 -45 -80 -27 -38 -50 -76 -50 -83 0 -7 23
-45 50 -84 28 -39 50 -76 50 -82 0 -6 -15 -11 -33 -11 -29 0 -39 7 -73 55 -21
30 -42 55 -46 55 -4 0 -26 -25 -48 -55 -33 -45 -46 -55 -70 -55 -16 0 -31 3
-33 8 -3 4 19 41 49 82 30 41 54 79 54 85 0 6 -22 41 -50 79 -27 38 -50 72
-50 76 0 27 45 26 73 -3z m536 -3 c34 -20 39 -35 16 -54 -13 -11 -25 -10 -69
5 -46 16 -58 16 -84 6 -45 -19 -64 -45 -69 -93 -4 -49 10 -82 49 -111 32 -24
67 -25 118 -2 32 15 42 15 55 5 24 -20 18 -36 -20 -59 -73 -43 -156 -35 -219
19 -45 40 -59 78 -54 148 5 71 31 111 90 142 51 26 138 23 187 -6z m320 20
c26 -6 31 -11 31 -35 l0 -29 -95 0 -95 0 0 -34 c0 -41 10 -46 101 -46 l69 0 0
-30 0 -30 -86 0 -85 0 3 -37 3 -38 95 -5 c93 -5 95 -5 95 -30 l0 -25 -127 -3
-126 -3 -6 38 c-7 45 -6 282 1 300 6 14 163 18 222 7z m271 -3 c120 -24 138
-178 25 -221 -15 -6 -49 -10 -76 -10 l-49 0 0 -56 0 -55 -32 3 -33 3 -3 159
c-2 108 1 163 9 172 13 16 89 18 159 5z m383 2 c34 -5 38 -9 35 -32 -3 -24 -7
-26 -55 -29 l-52 -3 -3 -137 -3 -137 -30 0 -30 0 -3 138 -3 137 -35 0 c-19 0
-44 5 -55 10 -21 12 -26 46 -6 53 18 8 196 8 240 0z m156 -7 c8 -9 11 -64 9
-172 l-3 -159 -35 0 -35 0 0 155 c0 85 3 163 7 173 9 20 41 23 57 3z m356 -10
c75 -49 104 -150 66 -229 -59 -121 -212 -139 -305 -36 -34 37 -36 43 -36 107
0 55 4 74 24 103 37 54 98 81 169 76 32 -3 69 -12 82 -21z m210 16 c6 -4 48
-54 93 -111 l82 -103 0 85 c0 105 11 140 43 135 22 -3 22 -4 22 -173 l0 -170
-26 -3 c-22 -3 -37 12 -108 103 -46 58 -87 105 -92 105 -5 0 -9 -48 -9 -106
l0 -105 -32 3 -33 3 -3 159 c-2 108 1 163 9 172 12 15 38 18 54 6z"/>
<path d="M750 3155 c-11 -14 -11 -19 3 -33 14 -14 22 -14 50 -4 18 7 73 12
122 12 l89 0 403 -402 c222 -222 402 -406 401 -410 -2 -5 -179 -184 -393 -398
l-390 -391 -110 4 c-60 3 -124 8 -141 12 -25 5 -33 3 -38 -11 -4 -10 -1 -24 9
-33 12 -13 20 -13 48 -3 18 7 81 12 138 12 l105 0 229 226 c127 124 308 302
403 397 l172 172 398 -397 397 -397 120 -5 c66 -2 134 -6 150 -8 26 -3 30 0
30 22 0 23 -3 25 -35 22 -19 -2 -83 -6 -142 -8 l-107 -5 -398 395 -398 395
410 405 410 406 100 -4 c55 -2 114 -6 130 -8 26 -3 30 0 30 22 0 21 -4 25 -30
23 -16 -1 -79 -5 -140 -8 l-110 -7 -375 -373 c-387 -385 -434 -429 -449 -423
-5 1 -190 181 -410 398 l-401 395 -108 7 c-59 3 -119 9 -133 13 -17 5 -29 2
-39 -10z"/>
<path d="M2485 831 c-37 -16 -58 -50 -63 -101 -4 -46 -2 -52 31 -85 28 -28 43
-35 75 -35 103 0 146 126 68 199 -26 24 -81 35 -111 22z"/>
</g>
</svg>
